<svg width="173" height="109" viewBox="0 0 173 109" fill="none" xmlns="http://www.w3.org/2000/svg">
<g filter="url(#filter0_d_135_137)">
<path d="M95.592 38L110.682 36.2489C112.107 36.0835 113.547 36.0845 114.972 36.2517L126.274 37.5779C128.518 37.8413 130.479 39.2183 131.488 41.2402L135.923 50.1255C139.227 56.7429 136.307 64.7772 129.526 67.7297L126.752 68.9372C117.741 72.8606 107.658 73.5837 98.1791 70.9863V70.9863C90.621 68.9153 82.5397 68.9745 74.9977 71.1033V71.1033C66.1016 73.6142 56.5195 73.2867 47.8409 70.1044L36 65.7626" stroke="url(#paint0_linear_135_137)"/>
</g>
<defs>
<filter id="filter0_d_135_137" x="0.827881" y="0.625488" width="171.959" height="107.642" filterUnits="userSpaceOnUse" colorInterpolationFilters="sRGB">
<feFlood flood-opacity="0" result="BackgroundImageFix"/>
<feColorMatrix in="SourceAlpha" type="matrix" values="0 0 0 0 0 0 0 0 0 0 0 0 0 0 0 0 0 0 127 0" result="hardAlpha"/>
<feOffset/>
<feGaussianBlur stdDeviation="17.5"/>
<feComposite in2="hardAlpha" operator="out"/>
<feColorMatrix type="matrix" values="0 0 0 0 1 0 0 0 0 0.258824 0 0 0 0 0.388235 0 0 0 1 0"/>
<feBlend mode="normal" in2="BackgroundImageFix" result="effect1_dropShadow_135_137"/>
<feBlend mode="normal" in="SourceGraphic" in2="effect1_dropShadow_135_137" result="shape"/>
</filter>
<linearGradient id="paint0_linear_135_137" x1="30.5235" y1="47.6898" x2="149.863" y2="50.0725" gradientUnits="userSpaceOnUse">
<stop stop-color="#FF7A00"/>
<stop offset="1" stop-color="#FF00D6"/>
</linearGradient>
</defs>
</svg>
